<?xml version="1.0" encoding="utf-8"?>
<!-- Generator: Adobe Illustrator 19.2.1, SVG Export Plug-In . SVG Version: 6.00 Build 0)  -->
<svg version="1.1" id="Layer_1" xmlns="http://www.w3.org/2000/svg" xmlns:xlink="http://www.w3.org/1999/xlink" x="0px" y="0px"
	 viewBox="0 0 150 150" style="enable-background:new 0 0 150 150;" xml:space="preserve">
<style type="text/css">
	.st0{fill:#FFFFFF;}
</style>
<g>
	<g>
		<path class="st0" d="M64.2,21.3c-1.4-3.6-3.1-9.4-6.3-11c-2.5-1.3-5-0.2-6,1.6c-2.5,4.5,0,11.9,1.4,16.5
			c3.3,11,7.8,22.4,11.3,32.3c2.5-2,8.6-1.3,13-0.9C73.6,47.3,69.1,33.7,64.2,21.3z M113.6,29.9c1.3-4.1,3.3-7.4,2.8-12.1
			c-0.3-2.8-2-5.2-4.9-5c-4.4,0.3-6.9,6.9-8.3,10.5c-5,12.2-9.4,25.5-13.2,37.8c4.2,0.5,8,1.4,12.2,2
			C106.2,53.2,110.1,41,113.6,29.9z M51.5,118.4c3.1,1.1,7.2,0.2,7.7-2.7c0.5-3-2-5.6-2.8-7.1c-3.3-5.2-5-7.5-8.9-11.6
			c-1.6-1.6-3.8-4.1-6.1-4.4c-3.8-0.3-6.9,3.8-8.1,6c-3.6,6.4-0.3,15.2,2.8,20.4c7.4,11.9,19.3,21.8,37.9,21.6
			c16-0.2,26.8-8.1,33.7-16.6c7.7-9.4,12.2-22.9,11.1-39c-0.2-3.1-0.6-6.4-2.4-9.2c-2.8-4.7-11.3-6.6-18.6-8.3
			c-3.4-0.8-7.5-1.4-11.8-1.7c-5.6-0.6-15-2.2-17.7,1.1c-2.2,2.8-0.3,7.2,0.8,8.9c4.1,6.3,16,7.2,26.2,7.2c5.3,0,12.5-1.3,11.8,3.9
			c-0.3,2.4-6.3,3.8-9.2,4.9c-3.3,1.3-6.4,3.4-8.6,5.3c-4.1,3.6-9.7,10.2-10.2,17.9c-0.5,7.2,3.3,9.2,2.5,16.6
			c-7.7-1.4-8.8-9.6-9.2-18.2c-1.7,0.8-4.4,0.9-6.4,0.3c3,10.8-8,14.9-16,11c-3.1-1.6-6.4-4.5-8.8-7.7c-2.5-3.4-5.2-8.1-2.5-12.1
			C42.4,108.7,45.2,116.4,51.5,118.4z M44.6,77.4c-0.3,3.4,2.5,7.5,3.8,9.7c3.4,6,7.1,10.7,11.8,15.4c2,2,5.3,5.5,8.6,5
			c1.6-0.2,3.6-2.2,3.9-3.9c0.5-3.1-1.7-7.2-2.8-9.9c-2.5-6-5.6-12.1-8.9-16.6c-2.2-3.1-5-6.9-9.2-6.4C49,70.8,44.9,74.1,44.6,77.4z
			 M78.6,99c3-3.4,6.4-6.4,10-9.4C83.2,89.4,78,88,73.9,87.1C75.8,90.9,77.4,94.8,78.6,99z"/>
	</g>
</g>
</svg>
